<svg viewBox="0 0 200 200" xmlns="http://www.w3.org/2000/svg">
  <!-- Background -->
  <rect width="200" height="200" fill="#f5f5f5" rx="20"/>
  
  <!-- Parking Grid -->
  <g transform="translate(40, 40)">
    <!-- Grid of parking spots -->
    <rect x="0" y="0" width="30" height="30" fill="#4CAF50" rx="4"/>
    <rect x="35" y="0" width="30" height="30" fill="#ff4444" rx="4"/>
    <rect x="70" y="0" width="30" height="30" fill="#ff4444" rx="4"/>
    <rect x="105" y="0" width="30" height="30" fill="#4CAF50" rx="4"/>
    
    <rect x="0" y="35" width="30" height="30" fill="#ff4444" rx="4"/>
    <rect x="35" y="35" width="30" height="30" fill="#2196F3" rx="4"/>
    <rect x="70" y="35" width="30" height="30" fill="#4CAF50" rx="4"/>
    <rect x="105" y="35" width="30" height="30" fill="#ff4444" rx="4"/>
    
    <rect x="0" y="70" width="30" height="30" fill="#4CAF50" rx="4"/>
    <rect x="35" y="70" width="30" height="30" fill="#4CAF50" rx="4"/>
    <rect x="70" y="70" width="30" height="30" fill="#FFC107" rx="4"/>
    <rect x="105" y="70" width="30" height="30" fill="#ff4444" rx="4"/>
    
    <rect x="0" y="105" width="30" height="30" fill="#ff4444" rx="4"/>
    <rect x="35" y="105" width="30" height="30" fill="#4CAF50" rx="4"/>
    <rect x="70" y="105" width="30" height="30" fill="#ff4444" rx="4"/>
    <rect x="105" y="105" width="30" height="30" fill="#4CAF50" rx="4"/>
  </g>
</svg>